<svg width="240" height="163" viewBox="0 0 240 163" fill="none" xmlns="http://www.w3.org/2000/svg">
<g opacity="0.4">
<path d="M1 187.518C36.1472 113.36 108.434 69.0715 91 -2.37449" stroke="#0382EB"/>
<path d="M2.93408 187.295C38.0813 113.137 117.434 69.0713 100 -2.37462" stroke="#0382EB"/>
<path d="M4.93408 187.295C40.0813 113.137 120.934 70.909 112.434 -1.37261" stroke="#0382EB"/>
<path d="M6.93408 187.295C42.0813 113.137 127.934 64.7835 129.434 -2.59774" stroke="#0382EB"/>
<path d="M8.93408 187.295C44.0813 113.137 133.434 61.7207 143.934 -1.98518" stroke="#0382EB"/>
<path d="M10.9341 187.295C46.0813 113.137 138.934 58.0453 159.934 -1.98517" stroke="#0382EB"/>
<path d="M12.9341 187.295C48.0813 113.137 146.434 51.3072 175.934 -2.59774" stroke="#0382EB"/>
<path d="M14.9341 187.295C50.0813 113.137 155.434 44.5691 193.934 -2.59771" stroke="#0382EB"/>
<path d="M16.9341 187.295C52.0813 113.137 166.434 34.7682 215.934 -2.59773" stroke="#0382EB"/>
<path d="M18.9341 187.295C54.0813 113.137 187.434 16.3915 244.934 -1.37262" stroke="#0382EB"/>
<path d="M20.9341 187.295C56.0813 113.137 184.934 15.779 297.434 -1.37262" stroke="#0382EB"/>
<path d="M22.9341 187.295C58.0813 113.137 181.934 19.4543 348.934 -1.37262" stroke="#0382EB"/>
<path d="M24.9341 187.295C60.0813 113.137 180.934 44.5691 381.434 -0.760088" stroke="#0382EB"/>
<path d="M26.9341 187.295C62.0813 113.137 203.934 60.4956 404.434 15.1665" stroke="#0382EB"/>
<path d="M28.9341 187.295C64.0813 113.137 203.934 80.7099 404.434 35.3808" stroke="#0382EB"/>
<path d="M30.9341 187.295C66.0813 113.137 203.934 97.8615 404.434 52.5323" stroke="#0382EB"/>
<path d="M32.9341 187.295C68.0813 113.137 205.434 117.463 405.934 72.1341" stroke="#0382EB"/>
<path d="M34.9341 187.295C70.0813 113.137 203.434 137.065 403.934 91.7359" stroke="#0382EB"/>
<path d="M36.9341 187.295C72.0813 113.137 202.434 158.505 402.934 113.175" stroke="#0382EB"/>
<path d="M38.9341 187.295C74.0813 113.137 202.434 178.106 402.934 132.777" stroke="#0382EB"/>
<path d="M40.9341 187.295C76.0813 113.137 203.934 197.708 404.434 152.379" stroke="#0382EB"/>
<path d="M42.9341 187.295C78.0813 113.137 203.934 214.247 404.434 168.918" stroke="#0382EB"/>
<path d="M44.9351 187.296C80.0822 113.138 202.434 238.749 402.934 193.42" stroke="#0382EB"/>
<path d="M46.9351 187.296C82.0822 113.138 198.934 268.765 399.434 223.436" stroke="#0382EB"/>
<path d="M48.9351 187.296C84.0822 113.138 195.434 299.392 395.934 254.063" stroke="#0382EB"/>
<path d="M50.9351 187.296C86.0822 113.138 208.434 344.109 408.934 298.78" stroke="#0382EB"/>
<path d="M52.9349 187.296C88.0821 113.139 183.934 409.04 384.434 363.711" stroke="#0382EB"/>
</g>
</svg>
