<svg width="25" height="25" viewBox="0 0 25 25" fill="none" xmlns="http://www.w3.org/2000/svg">
<path d="M12.2617 0H12.2815C18.9661 0 24.387 5.27884 24.387 11.7881V12.4444C24.387 18.9537 18.9661 24.2325 12.2815 24.2325H12.2617C5.5772 24.2325 0.15625 18.9537 0.15625 12.4444V11.7881C0.15625 5.27884 5.5772 0 12.2617 0Z" fill="#232323"/>
<path d="M17.4499 9.11986C17.4103 9.16329 17.3607 9.19707 17.3062 9.21637C17.2517 9.24049 17.1923 9.25014 17.1328 9.25014H5.90934C5.51293 9.25014 5.30977 8.76762 5.58726 8.4781L7.43058 6.57212C7.47022 6.52869 7.51977 6.49492 7.57924 6.47079C7.63374 6.44666 7.69321 6.43701 7.75267 6.43701H19.0207C19.4221 6.43701 19.6203 6.92436 19.3379 7.21388L17.4499 9.11986ZM17.4499 17.6413C17.3657 17.7233 17.2517 17.7716 17.1328 17.7716H5.90934C5.51293 17.7716 5.30977 17.2987 5.58726 17.0188L7.43058 15.1563C7.47022 15.1128 7.52473 15.0791 7.57924 15.0598C7.63374 15.0356 7.69321 15.026 7.75267 15.026H19.0207C19.4221 15.026 19.6203 15.5037 19.3379 15.7836L17.4499 17.6413ZM17.4499 10.8618C17.3657 10.7798 17.2517 10.7315 17.1328 10.7315H5.90934C5.51293 10.7315 5.30977 11.2044 5.58726 11.4842L7.43058 13.3468C7.47022 13.3902 7.52473 13.424 7.57924 13.4433C7.63374 13.4674 7.69321 13.4771 7.75267 13.4771H19.0207C19.4221 13.4771 19.6203 12.9994 19.3379 12.7195L17.4499 10.8618Z" fill="url(#paint0_linear_129_178)"/>
<defs>
<linearGradient id="paint0_linear_129_178" x1="6.31587" y1="17.913" x2="18.2595" y2="5.97184" gradientUnits="userSpaceOnUse">
<stop stop-color="#CF41E8"/>
<stop offset="1" stop-color="#10F2B0"/>
</linearGradient>
</defs>
</svg>
